PathFileType	4	(X/Y/Z)	path1_15_0-580.trc
DataRate	CameraRate	NumFrames	NumMarkers	Units	OrigDataRate	OrigDataStartFrame	OrigNumFrames
30	30	5	22	m	30	507	580
Frame#	Time	Hip			RHip			RKnee			RAnkle			RBigToe			RSmallToe			RHeel			LHip			LKnee			LAnkle			LBigToe			LSmallToe			LHeel			Neck			Head			Nose			RShoulder			RElbow			RWrist			LShoulder			LElbow			LWrist		
		X1	Y1	Z1	X2	Y2	Z2	X3	Y3	Z3	X4	Y4	Z4	X5	Y5	Z5	X6	Y6	Z6	X7	Y7	Z7	X8	Y8	Z8	X9	Y9	Z9	X10	Y10	Z10	X11	Y11	Z11	X12	Y12	Z12	X13	Y13	Z13	X14	Y14	Z14	X15	Y15	Z15	X16	Y16	Z16	X17	Y17	Z17	X18	Y18	Z18	X19	Y19	Z19	X20	Y20	Z20	X21	Y21	Z21	X22	Y22	Z22
508	16.933333333333334	-2.39858295278129	0.7976049674128816	0.8536982774873562	-2.4075792039767387	0.7617949072562792	0.7633821060873368	-2.3541825748980805	0.42654257575611515	0.7510443455655536	-2.3074664282931145	0.06528838637438907	0.7610683274608522	-2.4805735472962938	-0.022299058504587986	0.7555161727985629	-2.4516194921368095	-0.035743793915911724	0.7061817096624775	-2.264794394029217	-0.0015947041499125944	0.77495358393961	-2.3874113512518838	0.7583435763908272	0.9318799181319205	-2.3528075021533916	0.40551132774719856	0.9304658958893066	-2.3136590752163855	0.05738895162869862	0.9044089714830565	-2.469752773237093	-0.022628577512631545	0.9270387386220432	-2.529407283370007	-0.05288975542134606	0.9412085706763851	-2.276594057481353	-0.00898687407971434	0.9002491467281909	-2.369300754627053	1.4412362372002625	0.8812989451329669	-2.43290625283466	1.6244703798529054	0.9060545446690642	-2.4947840477181584	1.4874424683435197	0.9530816008520487	-2.336460141505828	1.3407269619460542	0.7029329623731158	-2.2987633912245693	1.0628590832550369	0.648076574302731	-2.3354588434911205	0.8121124014175156	0.6234299969066889	-2.3511784222894057	1.3152751164556298	1.0578515271473226	-2.36039486926989	1.042352179397308	1.074322967034782	-2.39023510583925	0.7984109621508805	1.0800063100892425
509	16.966666666666665	-2.4000743499303425	0.7972776253479831	0.8529208297383025	-2.4083199557291293	0.7621306003959323	0.7629041530220708	-2.3533839592132986	0.42718785668961856	0.7499309287246615	-2.306312426549496	0.06504579897238744	0.7610457482383044	-2.480286859548579	-0.022770806259528327	0.7553775764557769	-2.451188141806854	-0.03653455322567513	0.7068013438776832	-2.263438963862726	-0.0013727954685130639	0.7751944432068307	-2.389512629673815	0.7587695677321266	0.9314206927610003	-2.351594323212237	0.40567835018049436	0.9297493057085952	-2.3138929757617106	0.05745039708696753	0.9047199072321527	-2.470873583548184	-0.02270741675103856	0.9256620619251384	-2.5364806038162344	-0.05467561302468443	0.938452573716182	-2.277302891753273	-0.009721796352355287	0.9008401075533587	-2.3713288959819696	1.4409483382689052	0.8781938009048649	-2.433843736140438	1.6253156953128214	0.8999046948743677	-2.495834796394048	1.488107657194718	0.9526568583612789	-2.338272573385898	1.339604632309612	0.7002193859188961	-2.2985981772327353	1.0621651797230405	0.647283528808662	-2.331728075097005	0.8116780550333437	0.6241619686978305	-2.354045790616704	1.3151584767404139	1.0553669324103039	-2.361399831309366	1.0421088680048116	1.0724332611542113	-2.389938433689622	0.797605182031658	1.0784311226282857
510	17.0	-2.4008477322041957	0.7969419798514233	0.8521904963032213	-2.408098846050945	0.7624968675656002	0.7624833725757418	-2.3526150958090017	0.42780100732256393	0.7490741956943492	-2.3055756991975933	0.06484301240647672	0.760900860180565	-2.480521721273034	-0.023188383882459605	0.7554855804277363	-2.4511920515909815	-0.03721620639952993	0.707962000886586	-2.262578633433315	-0.0011534319897436157	0.7753155382336708	-2.3910355487630524	0.7590358166055525	0.9310049113701722	-2.351246951487914	0.4055349605213847	0.9291827574496644	-2.314496214017099	0.05732928942995947	0.9051317993110383	-2.4721860729617666	-0.02297458185035241	0.9247195195527359	-2.5396690885981923	-0.05538676598642311	0.9369863142122486	-2.278023766552039	-0.01039040690117103	0.9013249791686634	-2.372940463445406	1.4405777854825084	0.8751818090972906	-2.4344675145170234	1.6261593792180165	0.8934780164601028	-2.4968623355657154	1.4886878880880168	0.9501233837564476	-2.339372864216215	1.3385374853132266	0.6976763263837966	-2.2981432530550183	1.0614954503095293	0.6469301941540241	-2.328738626711613	0.8114614477919624	0.6256626617365837	-2.356446210355975	1.315149996907383	1.0530878012492866	-2.3619715221257875	1.042041044844777	1.0709682610200777	-2.389745440410452	0.7970312961445402	1.077155179118918
511	17.033333333333335	-2.401059084495957	0.796567835417399	0.8515750045444155	-2.4072050166334638	0.7626364214594398	0.7621158848174526	-2.351806358480233	0.4283011222006684	0.7485409620501455	-2.30516408865216	0.0647285642376225	0.7607087176842077	-2.4809785538751274	-0.023570037281939682	0.7558216555312173	-2.451392685492992	-0.03764852220788803	0.709341706464553	-2.2620775065497467	-0.0009688733874699635	0.7753788568697858	-2.391978984465401	0.7589997544421682	0.930597980030976	-2.351618857007181	0.40499206570625346	0.9289277984480976	-2.315234784970294	0.05709812897406953	0.9056004810985654	-2.473357825776102	-0.023371197284327686	0.9242326226690104	-2.540300818091291	-0.05536215299970395	0.9365374640418509	-2.2786115165771275	-0.01091752574463462	0.9017518686200594	-2.3741213859868537	1.4401592963142564	0.8722979891110886	-2.4346728821614776	1.626599203266187	0.8875567026781316	-2.4979012923027937	1.488992171349358	0.9460524143194543	-2.339644032581365	1.3375160867745797	0.6952627102321254	-2.297473503538341	1.060700878944732	0.6469256634005094	-2.326571650670803	0.8114328628333227	0.6276172498199218	-2.3584163176927366	1.3150984486578121	1.0510168459142424	-2.362213725561887	1.0421857021920973	1.0699010330772891	-2.3897545926005055	0.7967182224407782	1.0762044091972327
512	17.066666666666666	-2.4009381354427792	0.7961678905666478	0.8511310550931457	-2.406051785271159	0.7623899364117107	0.7618638895657303	-2.3509947051734144	0.42864230355436445	0.7482878428523831	-2.3049669331098888	0.06470604139730624	0.7605119869217816	-2.4813367772941097	-0.02387877609908695	0.7562690186272516	-2.4515369211546014	-0.037726058788299204	0.7104514025342399	-2.2617833873381192	-0.0008889342418719953	0.775401797232841	-2.3924450695698676	0.7585982054364379	0.9302940140050024	-2.3523853103338923	0.4041311161426742	0.9290103274066003	-2.3157733724099208	0.05686913951801058	0.906080810121817	-2.4740845122749007	-0.023748902693829618	0.9241894779410874	-2.539558799002054	-0.05490028363086699	0.936865233480355	-2.2788312313924513	-0.011248096587501803	0.9021407876374644	-2.3748385674960306	1.4397635911279583	0.8695317459916911	-2.434836280899927	1.6266706296180284	0.882578294369258	-2.49882690213763	1.489049058740875	0.9412055798848726	-2.3391130066305252	1.3365599585989831	0.6929804079820409	-2.296697808916468	1.0597401055880538	0.647106299072666	-2.3252547012039333	0.8116174990389491	0.6295939367703894	-2.3599947568344506	1.3149273714335488	1.0491614469106034	-2.3622126365028064	1.042531296965932	1.0691892078461058	-2.389922520977373	0.796620050950705	1.0755151332581476
